<svg width="1200" height="800" xmlns="http://www.w3.org/2000/svg">
  <!-- Phase 1: RESEARCH FOUNDATION -->
  <text x="100" y="40" font-family="Arial, sans-serif" font-size="20" font-weight="bold" fill="#2c3e50">Phase 1: RESEARCH FOUNDATION</text>
  
  <!-- Box 1: Research & Collection Preliminary -->
  <rect x="80" y="60" width="300" height="140" fill="#f8f9fa" stroke="#2c3e50" stroke-width="2" rx="8"/>
  <text x="230" y="85" font-family="Arial, sans-serif" font-size="16" font-weight="bold" fill="#2c3e50" text-anchor="middle">1. Research &amp; Collection</text>
  <text x="230" y="105" font-family="Arial, sans-serif" font-size="16" font-weight="bold" fill="#2c3e50" text-anchor="middle">Preliminary</text>
  <text x="100" y="130" font-family="Arial, sans-serif" font-size="14" fill="#2c3e50">• Literature Review</text>
  <text x="100" y="150" font-family="Arial, sans-serif" font-size="14" fill="#2c3e50">• Stakeholder Analysis</text>
  <text x="100" y="170" font-family="Arial, sans-serif" font-size="14" fill="#2c3e50">• NBM Data Collection</text>
  
  <!-- Arrow 1 to 2 -->
  <line x1="380" y1="130" x2="430" y2="130" stroke="#2c3e50" stroke-width="3"/>
  <polygon points="425,125 435,130 425,135" fill="#2c3e50"/>
  
  <!-- Box 2: Research Planning -->
  <rect x="430" y="60" width="300" height="140" fill="#f8f9fa" stroke="#2c3e50" stroke-width="2" rx="8"/>
  <text x="580" y="85" font-family="Arial, sans-serif" font-size="16" font-weight="bold" fill="#2c3e50" text-anchor="middle">2. Research Planning</text>
  <text x="450" y="120" font-family="Arial, sans-serif" font-size="14" fill="#2c3e50">• System Blueprint</text>
  <text x="450" y="140" font-family="Arial, sans-serif" font-size="14" fill="#2c3e50">• Technology Selection</text>
  <text x="450" y="160" font-family="Arial, sans-serif" font-size="14" fill="#2c3e50">• CRISP-DM Integration</text>
  <text x="450" y="180" font-family="Arial, sans-serif" font-size="14" fill="#2c3e50">• Architecture Design</text>
  
  <!-- Vertical arrow to Phase 2 -->
  <line x1="580" y1="200" x2="580" y2="250" stroke="#2c3e50" stroke-width="3"/>
  <polygon points="575,245 580,255 585,245" fill="#2c3e50"/>
  
  <!-- Phase 2: DEVELOPMENT -->
  <text x="500" y="280" font-family="Arial, sans-serif" font-size="20" font-weight="bold" fill="#2c3e50">Phase 2: DEVELOPMENT</text>
  
  <!-- Box 3: Early Product Development -->
  <rect x="80" y="300" width="280" height="140" fill="#f8f9fa" stroke="#2c3e50" stroke-width="2" rx="8"/>
  <text x="220" y="325" font-family="Arial, sans-serif" font-size="16" font-weight="bold" fill="#2c3e50" text-anchor="middle">3. Early Product</text>
  <text x="220" y="345" font-family="Arial, sans-serif" font-size="16" font-weight="bold" fill="#2c3e50" text-anchor="middle">Development</text>
  <text x="100" y="370" font-family="Arial, sans-serif" font-size="14" fill="#2c3e50">• LSTM Prototype</text>
  <text x="100" y="390" font-family="Arial, sans-serif" font-size="14" fill="#2c3e50">• Web Interface</text>
  <text x="100" y="410" font-family="Arial, sans-serif" font-size="14" fill="#2c3e50">• Preprocessing Pipeline</text>
  
  <!-- Arrow 3 to 4 -->
  <line x1="360" y1="370" x2="410" y2="370" stroke="#2c3e50" stroke-width="3"/>
  <polygon points="405,365 415,370 405,375" fill="#2c3e50"/>
  
  <!-- Box 4: Expert Validation -->
  <rect x="410" y="300" width="280" height="140" fill="#f8f9fa" stroke="#2c3e50" stroke-width="2" rx="8"/>
  <text x="550" y="325" font-family="Arial, sans-serif" font-size="16" font-weight="bold" fill="#2c3e50" text-anchor="middle">4. Expert Validation</text>
  <text x="430" y="360" font-family="Arial, sans-serif" font-size="14" fill="#2c3e50">• ML Expert Review</text>
  <text x="430" y="380" font-family="Arial, sans-serif" font-size="14" fill="#2c3e50">• Domain Expert Validation</text>
  <text x="430" y="400" font-family="Arial, sans-serif" font-size="14" fill="#2c3e50">• System Assessment</text>
  <text x="430" y="420" font-family="Arial, sans-serif" font-size="14" fill="#2c3e50">• Performance Evaluation</text>
  
  <!-- Arrow 4 to 5 -->
  <line x1="690" y1="370" x2="740" y2="370" stroke="#2c3e50" stroke-width="3"/>
  <polygon points="735,365 745,370 735,375" fill="#2c3e50"/>
  
  <!-- Box 5: Product Revision -->
  <rect x="740" y="300" width="280" height="140" fill="#f8f9fa" stroke="#2c3e50" stroke-width="2" rx="8"/>
  <text x="880" y="325" font-family="Arial, sans-serif" font-size="16" font-weight="bold" fill="#2c3e50" text-anchor="middle">5. Product Revision</text>
  <text x="760" y="360" font-family="Arial, sans-serif" font-size="14" fill="#2c3e50">• Architecture Refinement</text>
  <text x="760" y="380" font-family="Arial, sans-serif" font-size="14" fill="#2c3e50">• Model Enhancement</text>
  <text x="760" y="400" font-family="Arial, sans-serif" font-size="14" fill="#2c3e50">• Interface Improvement</text>
  <text x="760" y="420" font-family="Arial, sans-serif" font-size="14" fill="#2c3e50">• Documentation Update</text>
  
  <!-- Vertical arrow to Phase 3 -->
  <line x1="550" y1="440" x2="550" y2="490" stroke="#2c3e50" stroke-width="3"/>
  <polygon points="545,485 550,495 555,485" fill="#2c3e50"/>
  
  <!-- Phase 3: IMPLEMENTATION & TESTING -->
  <text x="400" y="520" font-family="Arial, sans-serif" font-size="20" font-weight="bold" fill="#2c3e50">Phase 3: IMPLEMENTATION &amp; TESTING</text>
  
  <!-- Box 6: Early Test with CRISP-DM -->
  <rect x="50" y="540" width="350" height="140" fill="#e8f4f8" stroke="#1565c0" stroke-width="3" rx="8"/>
  <rect x="60" y="550" width="330" height="30" fill="#1565c0" rx="5"/>
  <text x="225" y="570" font-family="Arial, sans-serif" font-size="16" font-weight="bold" fill="white" text-anchor="middle">6. Early Test (CRISP-DM INTEGRATION)</text>
  <text x="85" y="595" font-family="Arial, sans-serif" font-size="14" fill="#1565c0" font-weight="bold">• Business Understanding</text>
  <text x="85" y="615" font-family="Arial, sans-serif" font-size="14" fill="#1565c0" font-weight="bold">• Data Preparation &amp; Modeling</text>
  <text x="85" y="635" font-family="Arial, sans-serif" font-size="14" fill="#1565c0" font-weight="bold">• Evaluation &amp; Deployment</text>
  <text x="85" y="655" font-family="Arial, sans-serif" font-size="14" fill="#1565c0" font-weight="bold">• Model Training &amp; Validation</text>
  
  <!-- Arrow 6 to 7 -->
  <line x1="400" y1="610" x2="450" y2="610" stroke="#2c3e50" stroke-width="3"/>
  <polygon points="445,605 455,610 445,615" fill="#2c3e50"/>
  
  <!-- Box 7: Product Revision -->
  <rect x="450" y="540" width="320" height="140" fill="#f8f9fa" stroke="#2c3e50" stroke-width="2" rx="8"/>
  <text x="610" y="565" font-family="Arial, sans-serif" font-size="16" font-weight="bold" fill="#2c3e50" text-anchor="middle">7. Product Revision</text>
  <text x="470" y="595" font-family="Arial, sans-serif" font-size="14" fill="#2c3e50">• Hyperparameter Optimization</text>
  <text x="470" y="615" font-family="Arial, sans-serif" font-size="14" fill="#2c3e50">• Ensemble Configuration</text>
  <text x="470" y="635" font-family="Arial, sans-serif" font-size="14" fill="#2c3e50">• Performance Enhancement</text>
  <text x="470" y="655" font-family="Arial, sans-serif" font-size="14" fill="#2c3e50">• UI/UX Refinement</text>
  
  <!-- Arrow 7 to 8 -->
  <line x1="770" y1="610" x2="820" y2="610" stroke="#2c3e50" stroke-width="3"/>
  <polygon points="815,605 825,610 815,615" fill="#2c3e50"/>
  
  <!-- Box 8: Field Test -->
  <rect x="820" y="540" width="320" height="140" fill="#f8f9fa" stroke="#2c3e50" stroke-width="2" rx="8"/>
  <text x="980" y="565" font-family="Arial, sans-serif" font-size="16" font-weight="bold" fill="#2c3e50" text-anchor="middle">8. Field Test</text>
  <text x="840" y="595" font-family="Arial, sans-serif" font-size="14" fill="#2c3e50">• Real-world Testing</text>
  <text x="840" y="615" font-family="Arial, sans-serif" font-size="14" fill="#2c3e50">• Accuracy Assessment</text>
  <text x="840" y="635" font-family="Arial, sans-serif" font-size="14" fill="#2c3e50">• Stakeholder Feedback</text>
  <text x="840" y="655" font-family="Arial, sans-serif" font-size="14" fill="#2c3e50">• Government Validation</text>
  
  <!-- Vertical arrow to Phase 4 -->
  <line x1="610" y1="680" x2="610" y2="720" stroke="#2c3e50" stroke-width="3"/>
  <polygon points="605,715 610,725 615,715" fill="#2c3e50"/>
  
  <!-- Phase 4: FINALIZATION -->
  <text x="520" y="750" font-family="Arial, sans-serif" font-size="20" font-weight="bold" fill="#2c3e50">Phase 4: FINALIZATION</text>
  
  <!-- Box 9: Final Product Revision -->
  <rect x="300" y="760" width="320" height="60" fill="#f8f9fa" stroke="#2c3e50" stroke-width="2" rx="8"/>
  <text x="460" y="780" font-family="Arial, sans-serif" font-size="16" font-weight="bold" fill="#2c3e50" text-anchor="middle">9. Final Product Revision</text>
  <text x="320" y="800" font-family="Arial, sans-serif" font-size="14" fill="#2c3e50">• System Finalization • Production Deployment</text>
  
  <!-- Arrow 9 to 10 -->
  <line x1="620" y1="790" x2="670" y2="790" stroke="#2c3e50" stroke-width="3"/>
  <polygon points="665,785 675,790 665,795" fill="#2c3e50"/>
  
  <!-- Box 10: Dissemination -->
  <rect x="670" y="760" width="320" height="60" fill="#f8f9fa" stroke="#2c3e50" stroke-width="2" rx="8"/>
  <text x="830" y="780" font-family="Arial, sans-serif" font-size="16" font-weight="bold" fill="#2c3e50" text-anchor="middle">10. Dissemination</text>
  <text x="690" y="800" font-family="Arial, sans-serif" font-size="14" fill="#2c3e50">• Documentation • Knowledge Transfer</text>
  
  <!-- Feedback Loops dengan garis putus-putus -->
  <line x1="430" y1="330" x2="360" y2="330" stroke="#2c3e50" stroke-width="2" stroke-dasharray="5,5"/>
  <polygon points="365,325 355,330 365,335" fill="#2c3e50"/>
  
  <line x1="470" y1="570" x2="400" y2="570" stroke="#2c3e50" stroke-width="2" stroke-dasharray="5,5"/>
  <polygon points="405,565 395,570 405,575" fill="#2c3e50"/>
  
  <line x1="840" y1="570" x2="770" y2="570" stroke="#2c3e50" stroke-width="2" stroke-dasharray="5,5"/>
  <polygon points="775,565 765,570 775,575" fill="#2c3e50"/>
  
  <!-- CRISP-DM Highlight Legend -->
  <rect x="50" y="20" width="400" height="30" fill="#1565c0" rx="5"/>
  <text x="250" y="40" font-family="Arial, sans-serif" font-size="14" font-weight="bold" fill="white" text-anchor="middle">CRISP-DM Integration Highlighted in Blue</text>
</svg>